<?xml version="1.0" encoding="utf-8"?>
<!-- Generator: Adobe Illustrator 16.0.0, SVG Export Plug-In . SVG Version: 6.00 Build 0)  -->
<!DOCTYPE svg PUBLIC "-//W3C//DTD SVG 1.1//EN" "http://www.w3.org/Graphics/SVG/1.1/DTD/svg11.dtd">
<svg version="1.1" id="Capa_1" xmlns="http://www.w3.org/2000/svg" xmlns:xlink="http://www.w3.org/1999/xlink" x="0px" y="0px"
	 width="82px" height="64px" viewBox="0 0 82 64" enable-background="new 0 0 82 64" xml:space="preserve">
<g>
	<path fill="#FFFFFF" d="M57.669,10.569c-10-5.5-16.5,3.333-16.5,3.333c-7.167-9.333-17.583-2.833-17.583-2.833
		c-9.417,6.333-6.033,15.57-3.25,19.5c4.681,6.61,21,24.666,21,24.666S58.359,36.78,62.503,29.569
		C69.251,17.819,57.669,10.569,57.669,10.569z M59.982,27.173c-3.705,6.037-18.78,22.646-18.78,22.646S27.147,34.147,23.258,28.671
		c-4.939-6.951-1.3-11.699,1.474-13.999c8.958-7.43,16.387,4.225,16.387,4.225c6.995-8.509,11.375-6.74,13.903-5.561
		C60.984,16.12,62.136,23.66,59.982,27.173z"/>
</g>
</svg>
