<?xml version="1.0" encoding="utf-8"?>
<!-- Generator: Adobe Illustrator 16.0.0, SVG Export Plug-In . SVG Version: 6.00 Build 0)  -->
<!DOCTYPE svg PUBLIC "-//W3C//DTD SVG 1.1//EN" "http://www.w3.org/Graphics/SVG/1.1/DTD/svg11.dtd">
<svg version="1.1" id="Capa_1" xmlns="http://www.w3.org/2000/svg" xmlns:xlink="http://www.w3.org/1999/xlink" x="0px" y="0px"
	 width="84.178px" height="84.177px" viewBox="0 0 84.178 84.177" enable-background="new 0 0 84.178 84.177" xml:space="preserve">
<g>
	<path fill="#FFFFFF" d="M58.406,22.422c-10-5.5-16.5,3.333-16.5,3.333c-7.167-9.333-17.583-2.833-17.583-2.833
		c-9.417,6.333-6.033,15.57-3.25,19.5c4.681,6.609,21,24.667,21,24.667s17.023-18.455,21.167-25.667
		C69.989,29.672,58.406,22.422,58.406,22.422z M60.719,39.026C57.015,45.063,41.94,61.672,41.94,61.672S27.885,46,23.995,40.524
		c-4.939-6.951-1.299-11.699,1.474-13.999c8.958-7.43,16.387,4.225,16.387,4.225c6.994-8.509,11.375-6.74,13.902-5.561
		C61.722,27.973,62.874,35.513,60.719,39.026z"/>
</g>
</svg>
